HIERARCHY
ROOT Hips
{
 OFFSET 0.000000 0.000000 0.000000
 CHANNELS 6 Xposition Yposition Zposition Yrotation Xrotation Zrotation
 JOINT Chest
 {
  OFFSET 0.000000 10.366939 -0.000175
  CHANNELS 3 Yrotation Xrotation Zrotation
  JOINT Chest2
  {
   OFFSET 0.000000 11.433790 0.000318
   CHANNELS 3 Yrotation Xrotation Zrotation
   JOINT Chest3
   {
    OFFSET 0.000000 10.331133 0.000000
    CHANNELS 3 Yrotation Xrotation Zrotation
    JOINT Chest4
    {
     OFFSET 0.000000 10.331133 0.000000
     CHANNELS 3 Yrotation Xrotation Zrotation
     JOINT Neck
     {
      OFFSET 0.000000 14.530095 0.000000
      CHANNELS 3 Yrotation Xrotation Zrotation
      JOINT Head
      {
       OFFSET 0.000000 9.616255 0.000757
       CHANNELS 3 Yrotation Xrotation Zrotation
       End Site
       {
        OFFSET 0.000000 18.398191 0.000395
       }
      }
     }
     JOINT RightCollar
     {
      OFFSET -3.159467 8.107572 0.000000
      CHANNELS 3 Yrotation Xrotation Zrotation
      JOINT RightShoulder
      {
       OFFSET -14.759419 0.000000 0.000000
       CHANNELS 3 Yrotation Xrotation Zrotation
       JOINT RightElbow
       {
        OFFSET 0.000000 -31.561777 0.000000
        CHANNELS 3 Yrotation Xrotation Zrotation
        JOINT RightWrist
        {
         OFFSET 0.000000 -25.811607 0.000000
         CHANNELS 3 Yrotation Xrotation Zrotation
         End Site
         {
          OFFSET 0.000000 -19.296333 0.000000
         }
        }
       }
      }
     }
     JOINT LeftCollar
     {
      OFFSET 3.159467 8.107572 0.000000
      CHANNELS 3 Yrotation Xrotation Zrotation
      JOINT LeftShoulder
      {
       OFFSET 14.759419 0.000000 0.000000
       CHANNELS 3 Yrotation Xrotation Zrotation
       JOINT LeftElbow
       {
        OFFSET 0.000000 -31.561777 0.000000
        CHANNELS 3 Yrotation Xrotation Zrotation
        JOINT LeftWrist
        {
         OFFSET 0.000000 -25.811607 0.000000
         CHANNELS 3 Yrotation Xrotation Zrotation
         End Site
         {
          OFFSET 0.000000 -19.296333 0.000000
         }
        }
       }
      }
     }
    }
   }
  }
 }
 JOINT RightHip
 {
  OFFSET -8.420485 0.000859 0.000088
  CHANNELS 3 Yrotation Xrotation Zrotation
  JOINT RightKnee
  {
   OFFSET 0.000000 -43.611855 -0.000083
   CHANNELS 3 Yrotation Xrotation Zrotation
   JOINT RightAnkle
   {
    OFFSET 0.000000 -42.630478 -0.000140
    CHANNELS 3 Yrotation Xrotation Zrotation
    JOINT RightToe
    {
     OFFSET 0.000000 -7.539428 17.119853
     CHANNELS 3 Yrotation Xrotation Zrotation
     End Site
     {
      OFFSET 0.000000 -1.595212 6.940629
     }
    }
   }
  }
 }
 JOINT LeftHip
 {
  OFFSET 8.420485 0.000859 0.000088
  CHANNELS 3 Yrotation Xrotation Zrotation
  JOINT LeftKnee
  {
   OFFSET 0.000000 -43.611855 -0.000083
   CHANNELS 3 Yrotation Xrotation Zrotation
   JOINT LeftAnkle
   {
    OFFSET 0.000000 -42.630478 -0.000140
    CHANNELS 3 Yrotation Xrotation Zrotation
    JOINT LeftToe
    {
     OFFSET 0.000000 -7.539428 17.119853
     CHANNELS 3 Yrotation Xrotation Zrotation
     End Site
     {
      OFFSET 0.000000 -1.595212 6.940629
     }
    }
   }
  }
 }
}
MOTION
Frames: 16
Frame Time: 0.008333
407.012407 47.275015 121.886730 -78.524141 -21.565172 0.535125 0.753169 14.734777 -0.235311 0.181886 6.527365 -0.557738 0.181886 6.527365 -0.557738 0.142246 4.895363 -0.419800 0.455100 11.609511 0.770750 0.537442 -14.625715 1.280530 0.547299 4.161455 11.066429 4.087600 -28.684957 -24.298178 64.312370 -45.331137 -34.868877 20.089231 -8.317242 0.348719 0.617531 2.947934 -8.753910 -0.580902 -31.127364 13.577242 -53.553539 -25.363958 16.835551 -16.730942 -2.384122 -11.132012 -10.255968 -70.923017 -13.449607 164.743420 64.302062 158.837640 4.123294 -21.502616 -0.372322 -0.326552 0.920986 -0.138690 -6.788367 -74.047047 32.859787 -148.381186 62.785484 -146.608525 -1.116223 -13.598047 -2.327392 -0.507792 -1.034864 -0.218447
407.012396 47.273273 121.887697 -78.520899 -21.562575 0.530665 0.752396 14.731488 -0.234360 0.183362 6.528160 -0.555938 0.183362 6.528160 -0.555938 0.143333 4.895959 -0.418467 0.454478 11.602650 0.770611 0.536262 -14.638453 1.280557 0.546320 4.162016 11.062557 4.088715 -28.683930 -24.306971 64.281020 -45.344146 -34.849854 20.121259 -8.321373 0.353358 0.610683 2.943050 -8.756374 -0.576709 -31.125304 13.580344 -53.557807 -25.373869 16.824275 -16.707299 -2.377867 -11.105309 -10.281698 -70.925998 -13.431941 164.734496 64.300726 158.824377 4.140756 -21.503891 -0.378271 -0.327365 0.923815 -0.141069 -6.795034 -74.053024 32.865221 -148.380436 62.781087 -146.604798 -1.112677 -13.603154 -2.331466 -0.507074 -1.033810 -0.215540
407.014097 47.271915 121.889708 -78.510242 -21.558753 0.528697 0.747145 14.723962 -0.235381 0.184763 6.528601 -0.553987 0.184763 6.528601 -0.553987 0.144363 4.896289 -0.417021 0.452322 11.595715 0.769281 0.532658 -14.651321 1.278969 0.541555 4.162102 11.056276 4.082495 -28.683863 -24.315352 64.252864 -45.353410 -34.822540 20.139776 -8.325341 0.352873 0.606635 2.942635 -8.756575 -0.578854 -31.122272 13.576724 -53.543189 -25.350180 16.792454 -16.700409 -2.395034 -11.056279 -10.282193 -70.931752 -13.447957 164.730553 64.300066 158.822475 4.166279 -21.503425 -0.388366 -0.326061 0.926046 -0.141767 -6.789506 -74.056870 32.858013 -148.377073 62.785876 -146.599868 -1.157548 -13.609122 -2.324546 -0.499860 -1.027568 -0.211159
407.014138 47.271343 121.890148 -78.507176 -21.557086 0.522283 0.746176 14.721467 -0.230835 0.184774 6.529511 -0.552927 0.184774 6.529511 -0.552927 0.144360 4.896971 -0.416227 0.456013 11.589159 0.767745 0.540365 -14.663525 1.274435 0.537914 4.164012 11.048023 4.082654 -28.688638 -24.320110 64.239624 -45.367010 -34.803832 20.155760 -8.328677 0.352100 0.610939 2.941720 -8.760664 -0.578451 -31.120747 13.579718 -53.558610 -25.357181 16.785507 -16.674962 -2.381307 -11.031661 -10.309610 -70.931775 -13.426089 164.723469 64.303815 158.811668 4.155786 -21.503343 -0.375428 -0.338095 0.929763 -0.149854 -6.805107 -74.062296 32.876374 -148.373738 62.784499 -146.592852 -1.148548 -13.605645 -2.334813 -0.484765 -1.030053 -0.205365
407.012808 47.272368 121.887765 -78.513828 -21.564648 0.513948 0.757041 14.723194 -0.219456 0.184790 6.530556 -0.552982 0.184790 6.530556 -0.552982 0.144374 4.897755 -0.416268 0.457514 11.582461 0.767640 0.543245 -14.675974 1.273601 0.529922 4.164639 11.051607 4.093022 -28.690341 -24.331983 64.212698 -45.372743 -34.776798 20.167505 -8.328920 0.348207 0.610515 2.947038 -8.756929 -0.573916 -31.124963 13.572102 -53.546899 -25.329486 16.754309 -16.667342 -2.400701 -10.987493 -10.339953 -70.918929 -13.393206 164.716559 64.308963 158.807411 4.174399 -21.503425 -0.386951 -0.335702 0.933492 -0.150036 -6.827038 -74.051189 32.909624 -148.378428 62.785518 -146.593896 -1.139007 -13.614543 -2.344300 -0.477121 -1.026024 -0.202519
407.011784 47.273505 121.888179 -78.509064 -21.572475 0.512071 0.758681 14.728487 -0.217649 0.184932 6.532494 -0.552790 0.184932 6.532494 -0.552790 0.144480 4.899209 -0.416126 0.454985 11.578689 0.768508 0.537988 -14.682959 1.276383 0.514221 4.165062 11.048451 4.100417 -28.692238 -24.332217 64.196757 -45.380907 -34.765967 20.179267 -8.333905 0.348246 0.606743 2.950012 -8.755235 -0.586825 -31.125681 13.576626 -53.540114 -25.332475 16.745295 -16.654959 -2.395183 -10.970881 -10.336903 -70.909927 -13.402862 164.734167 64.313807 158.829694 4.157250 -21.500575 -0.382646 -0.334416 0.931758 -0.149064 -6.832820 -74.042634 32.914146 -148.378311 62.784795 -146.597069 -1.147092 -13.613379 -2.339801 -0.477779 -1.029642 -0.203646
407.011124 47.273140 121.885905 -78.519161 -21.573556 0.511549 0.768359 14.729444 -0.215300 0.184658 6.532053 -0.554071 0.184658 6.532053 -0.554071 0.144288 4.898878 -0.417083 0.456505 11.572973 0.769731 0.540332 -14.693581 1.278087 0.519236 4.166359 11.051384 4.098415 -28.695024 -24.338832 64.178604 -45.393449 -34.754882 20.187875 -8.338486 0.347959 0.608801 2.949602 -8.750438 -0.589211 -31.127060 13.576424 -53.522475 -25.297797 16.717016 -16.658565 -2.420601 -10.936663 -10.340804 -70.908436 -13.394076 164.726706 64.317241 158.824245 4.168411 -21.497049 -0.382619 -0.342888 0.933244 -0.154838 -6.826519 -74.042953 32.923319 -148.378670 62.781443 -146.592372 -1.135426 -13.618319 -2.348414 -0.470031 -1.027858 -0.200049
407.011214 47.273549 121.884645 -78.518793 -21.571750 0.512842 0.770358 14.727585 -0.220012 0.185737 6.532020 -0.555324 0.185737 6.532020 -0.555324 0.145110 4.898852 -0.418034 0.457325 11.571465 0.771582 0.541089 -14.696380 1.281286 0.518127 4.169173 11.055247 4.100713 -28.691424 -24.344816 64.166821 -45.400377 -34.754608 20.185380 -8.345033 0.345560 0.603953 2.952555 -8.749144 -0.593257 -31.130730 13.586150 -53.532874 -25.296560 16.711698 -16.655379 -2.412578 -10.925095 -10.339201 -70.910920 -13.397990 164.735992 64.319089 158.834733 4.183313 -21.494952 -0.389516 -0.340963 0.932426 -0.153570 -6.824985 -74.041968 32.926441 -148.366059 62.780981 -146.581287 -1.153962 -13.621028 -2.342647 -0.470506 -1.026114 -0.201248
407.012063 47.273438 121.883163 -78.516415 -21.570629 0.513270 0.767886 14.721679 -0.223315 0.184910 6.532054 -0.554567 0.184910 6.532054 -0.554567 0.144483 4.898878 -0.417458 0.460349 11.569156 0.773465 0.546054 -14.700684 1.283590 0.517455 4.175051 11.055689 4.109153 -28.687628 -24.349266 64.164862 -45.403996 -34.765619 20.179544 -8.349743 0.344911 0.606666 2.956882 -8.753084 -0.600699 -31.129390 13.593538 -53.525116 -25.268350 16.680149 -16.661672 -2.425198 -10.889125 -10.329913 -70.915903 -13.408890 164.744082 64.319666 158.844136 4.197132 -21.484077 -0.391078 -0.344275 0.924459 -0.154515 -6.820045 -74.045497 32.916940 -148.364752 62.781534 -146.577017 -1.133710 -13.616548 -2.350755 -0.467644 -1.028746 -0.201282
407.011223 47.272971 121.882099 -78.520041 -21.574773 0.511953 0.775149 14.726414 -0.220189 0.185294 6.531770 -0.554314 0.185294 6.531770 -0.554314 0.144767 4.898665 -0.417272 0.460218 11.567958 0.773487 0.545786 -14.702908 1.283692 0.510837 4.180599 11.054027 4.101649 -28.690641 -24.340039 64.181949 -45.402422 -34.781164 20.175908 -8.352639 0.346390 0.605046 2.957945 -8.759252 -0.611275 -31.130490 13.607277 -53.546433 -25.273921 16.671474 -16.651981 -2.407695 -10.877826 -10.326023 -70.912132 -13.409037 164.738718 64.318715 158.842312 4.190077 -21.482617 -0.388633 -0.345537 0.923069 -0.155478 -6.816770 -74.043428 32.918401 -148.356998 62.772602 -146.567540 -1.127261 -13.619767 -2.349560 -0.469870 -1.030342 -0.202383
407.011911 47.272380 121.882998 -78.515986 -21.577734 0.519244 0.768759 14.725872 -0.229056 0.183423 6.530871 -0.556182 0.183423 6.530871 -0.556182 0.143385 4.897992 -0.418652 0.463175 11.566610 0.774702 0.550921 -14.705426 1.284739 0.508271 4.185380 11.056608 4.109214 -28.690729 -24.336728 64.192715 -45.402997 -34.789041 20.168681 -8.351963 0.349746 0.607637 2.963313 -8.756796 -0.617604 -31.137347 13.608623 -53.534819 -25.238457 16.643672 -16.654696 -2.429946 -10.852419 -10.292954 -70.913124 -13.446297 164.748418 64.316341 158.854822 4.196681 -21.483159 -0.393892 -0.337177 0.921543 -0.151347 -6.799511 -74.037081 32.890872 -148.353663 62.772289 -146.565669 -1.149639 -13.625498 -2.341655 -0.477039 -1.028380 -0.207440
407.011127 47.272231 121.882717 -78.520473 -21.581205 0.523004 0.767323 14.730096 -0.233994 0.182463 6.531168 -0.557025 0.182463 6.531168 -0.557025 0.142674 4.898215 -0.419273 0.465973 11.563830 0.772356 0.557297 -14.710615 1.279024 0.513941 4.181798 11.059012 4.109599 -28.688396 -24.332080 64.214425 -45.402466 -34.811713 20.155623 -8.348902 0.361182 0.607638 2.963650 -8.751997 -0.607937 -31.144442 13.603552 -53.566974 -25.237325 16.635174 -16.638590 -2.409819 -10.843327 -10.280167 -70.911319 -13.458933 164.727926 64.312511 158.833704 4.206849 -21.484560 -0.392662 -0.345096 0.922813 -0.156452 -6.795296 -74.031321 32.886766 -148.363817 62.773516 -146.578767 -1.132383 -13.627273 -2.346101 -0.479557 -1.029532 -0.208524
407.011296 47.271887 121.884403 -78.511104 -21.583176 0.525807 0.753611 14.729835 -0.241817 0.181462 6.531948 -0.557889 0.181462 6.531948 -0.557889 0.141935 4.898801 -0.419909 0.466550 11.562000 0.769876 0.559474 -14.714024 1.274018 0.518294 4.183148 11.058305 4.109128 -28.691231 -24.320239 64.232389 -45.392430 -34.831882 20.141860 -8.349037 0.369275 0.609609 2.965724 -8.751092 -0.614401 -31.151706 13.602337 -53.564564 -25.203456 16.608839 -16.638430 -2.421424 -10.819616 -10.260342 -70.910884 -13.490019 164.726177 64.310886 158.832369 4.201256 -21.487360 -0.385244 -0.351999 0.923545 -0.158721 -6.779467 -74.031630 32.857565 -148.364201 62.775063 -146.578182 -1.117888 -13.620917 -2.353668 -0.476526 -1.034068 -0.206171
407.011320 47.272093 121.885543 -78.503581 -21.582412 0.528817 0.742583 14.731009 -0.248397 0.181002 6.532361 -0.559126 0.181002 6.532361 -0.559126 0.141604 4.899111 -0.420831 0.467020 11.559552 0.772045 0.559413 -14.718568 1.277984 0.519420 4.183047 11.059035 4.111235 -28.693050 -24.310083 64.247035 -45.380422 -34.854378 20.130506 -8.351015 0.378852 0.606262 2.969260 -8.749490 -0.604262 -31.161908 13.601193 -53.598665 -25.199799 16.605133 -16.628944 -2.410773 -10.816752 -10.242649 -70.910119 -13.517073 164.702037 64.306463 158.805047 4.230650 -21.493755 -0.390189 -0.357515 0.927054 -0.160423 -6.745030 -74.031777 32.814706 -148.359367 62.777124 -146.562403 -1.133813 -13.626506 -2.357120 -0.465411 -1.030097 -0.204387
407.011021 47.272991 121.886250 -78.499097 -21.584171 0.528363 0.735044 14.732647 -0.250904 0.178778 6.534452 -0.559592 0.178778 6.534452 -0.559592 0.139944 4.900681 -0.421157 0.469207 11.556077 0.770277 0.564360 -14.725039 1.273646 0.524400 4.175595 11.064016 4.107869 -28.692881 -24.301397 64.272051 -45.365326 -34.878682 20.113277 -8.358042 0.386221 0.608116 2.966274 -8.754328 -0.608261 -31.167454 13.602702 -53.601329 -25.164671 16.582455 -16.633239 -2.432300 -10.799913 -10.235366 -70.908876 -13.526401 164.706758 64.306870 158.814104 4.205443 -21.490251 -0.383014 -0.351742 0.923216 -0.158734 -6.727152 -74.028543 32.791434 -148.359732 62.779139 -146.556414 -1.138660 -13.631378 -2.358503 -0.461983 -1.027525 -0.203939
407.008892 47.274444 121.884694 -78.499089 -21.591780 0.522130 0.733798 14.739593 -0.246617 0.176453 6.536235 -0.559927 0.176453 6.536235 -0.559927 0.138207 4.902020 -0.421383 0.470157 11.554548 0.767551 0.567362 -14.727893 1.268006 0.530490 4.177133 11.062463 4.098764 -28.702810 -24.284218 64.300229 -45.352070 -34.897960 20.092163 -8.350585 0.392196 0.612844 2.963151 -8.751282 -0.607130 -31.169673 13.596300 -53.634738 -25.162930 16.587504 -16.617910 -2.411864 -10.805163 -10.244382 -70.896080 -13.514769 164.692662 64.304978 158.798897 4.233074 -21.491958 -0.391679 -0.350151 0.922259 -0.157853 -6.747915 -74.018189 32.811050 -148.362205 62.776284 -146.556147 -1.137398 -13.634434 -2.361294 -0.463490 -1.029908 -0.204456
